<svg width="16" height="16" viewBox="0 0 16 16" fill="none" xmlns="http://www.w3.org/2000/svg">
<path d="M8 3.83333C7.55797 3.83333 7.13405 3.65774 6.82149 3.34518C6.50893 3.03262 6.33333 2.60869 6.33333 2.16667C6.33333 1.72464 6.50893 1.30072 6.82149 0.988155C7.13405 0.675595 7.55797 0.5 8 0.5C8.44203 0.5 8.86595 0.675595 9.17851 0.988155C9.49107 1.30072 9.66667 1.72464 9.66667 2.16667C9.66667 2.60869 9.49107 3.03262 9.17851 3.34518C8.86595 3.65774 8.44203 3.83333 8 3.83333ZM8 3.83333V7.16667M8 7.16667C8.66304 7.16667 9.29893 7.43006 9.76777 7.8989C10.2366 8.36774 10.5 9.00363 10.5 9.66667C10.5 10.3297 10.2366 10.9656 9.76777 11.4344C9.29893 11.9033 8.66304 12.1667 8 12.1667C7.33696 12.1667 6.70107 11.9033 6.23223 11.4344C5.76339 10.9656 5.5 10.3297 5.5 9.66667C5.5 9.00363 5.76339 8.36774 6.23223 7.8989C6.70107 7.43006 7.33696 7.16667 8 7.16667ZM3.58333 12.8333L5.91667 11.1667M12.4167 12.8333L10.0833 11.1667M0.5 13.8333C0.5 14.2754 0.675595 14.6993 0.988155 15.0118C1.30072 15.3244 1.72464 15.5 2.16667 15.5C2.60869 15.5 3.03262 15.3244 3.34518 15.0118C3.65774 14.6993 3.83333 14.2754 3.83333 13.8333C3.83333 13.3913 3.65774 12.9674 3.34518 12.6548C3.03262 12.3423 2.60869 12.1667 2.16667 12.1667C1.72464 12.1667 1.30072 12.3423 0.988155 12.6548C0.675595 12.9674 0.5 13.3913 0.5 13.8333ZM12.1667 13.8333C12.1667 14.2754 12.3423 14.6993 12.6548 15.0118C12.9674 15.3244 13.3913 15.5 13.8333 15.5C14.2754 15.5 14.6993 15.3244 15.0118 15.0118C15.3244 14.6993 15.5 14.2754 15.5 13.8333C15.5 13.3913 15.3244 12.9674 15.0118 12.6548C14.6993 12.3423 14.2754 12.1667 13.8333 12.1667C13.3913 12.1667 12.9674 12.3423 12.6548 12.6548C12.3423 12.9674 12.1667 13.3913 12.1667 13.8333Z" stroke="white" stroke-linecap="round" stroke-linejoin="round"/>
</svg>
