<svg width="17" height="16" viewBox="0 0 17 16" fill="none" xmlns="http://www.w3.org/2000/svg">
<path d="M15.5884 7.07984V13.7373C15.5884 14.1207 15.4598 14.4409 15.2026 14.6982C14.9454 14.9554 14.6254 15.0837 14.2426 15.0832H2.76677C2.38343 15.0832 2.06316 14.9548 1.80593 14.6982C1.54871 14.4415 1.42038 14.1212 1.42093 13.7373V7.04817C1.06927 6.78873 0.812045 6.44845 0.649267 6.02734C0.486489 5.60623 0.482878 5.15706 0.638434 4.67984L1.44927 2.0065C1.56038 1.6665 1.73955 1.39984 1.98677 1.2065C2.23454 1.01317 2.54066 0.916504 2.9051 0.916504H14.0718C14.4357 0.916504 14.7407 1.00706 14.9868 1.18817C15.2323 1.36928 15.4123 1.63123 15.5268 1.974L16.3693 4.679C16.5254 5.15678 16.522 5.60984 16.3593 6.03817C16.1965 6.4665 15.9401 6.81373 15.5884 7.07984ZM10.3376 6.74984C10.8726 6.74984 11.272 6.59984 11.5359 6.29984C11.7998 6.00039 11.9109 5.69095 11.8693 5.3715L11.3168 1.74984H8.9226V5.24984C8.9226 5.65928 9.0626 6.0115 9.3426 6.3065C9.6226 6.60206 9.95482 6.74984 10.3393 6.74984M6.58927 6.74984C7.03704 6.74984 7.39899 6.60206 7.6751 6.3065C7.95121 6.01095 8.08927 5.65873 8.08927 5.24984V1.74984H5.69427L5.13927 5.43567C5.10538 5.69456 5.21843 5.97817 5.47843 6.2865C5.73843 6.59484 6.10927 6.74928 6.58927 6.74984ZM2.8801 6.74984C3.24732 6.74984 3.55955 6.62484 3.81677 6.37484C4.07399 6.12484 4.23399 5.81289 4.29677 5.439L4.81927 1.74984H2.90593C2.72427 1.74984 2.57982 1.78984 2.4726 1.86984C2.36538 1.94984 2.28538 2.07012 2.2326 2.23067L1.46343 4.86234C1.32677 5.30011 1.3851 5.72428 1.63843 6.13484C1.89177 6.54539 2.30566 6.75039 2.8801 6.74984ZM14.1301 6.74984C14.629 6.74984 15.0273 6.55539 15.3251 6.1665C15.6234 5.77762 15.6973 5.34289 15.5468 4.86234L14.7359 2.199C14.6826 2.03845 14.6023 1.92345 14.4951 1.854C14.3879 1.78456 14.2437 1.74984 14.0626 1.74984H12.1909L12.7134 5.439C12.7762 5.81289 12.9362 6.12484 13.1934 6.37484C13.4507 6.62484 13.7629 6.74984 14.1301 6.74984ZM2.7676 14.2498H14.2426C14.392 14.2498 14.5148 14.2018 14.6109 14.1057C14.707 14.0096 14.7551 13.8868 14.7551 13.7373V7.47734C14.6429 7.51623 14.5362 7.54345 14.4351 7.559C14.3345 7.57511 14.2329 7.58317 14.1301 7.58317C13.7551 7.58317 13.4251 7.51012 13.1401 7.364C12.8551 7.21789 12.5845 6.98456 12.3284 6.664C12.1107 6.93512 11.842 7.15595 11.5226 7.3265C11.2032 7.49706 10.8148 7.58261 10.3576 7.58317C10.0254 7.58317 9.70927 7.50567 9.40927 7.35067C9.10927 7.19567 8.80788 6.9665 8.5051 6.66317C8.22621 6.9665 7.91704 7.19567 7.5776 7.35067C7.23871 7.50567 6.91538 7.58317 6.6076 7.58317C6.25816 7.58317 5.9176 7.5165 5.58593 7.38317C5.25427 7.24984 4.96343 7.00984 4.71343 6.66317C4.30399 7.07261 3.94621 7.32817 3.6401 7.42984C3.33454 7.53206 3.08121 7.58317 2.8801 7.58317C2.77732 7.58317 2.67399 7.57511 2.5701 7.559C2.46566 7.54289 2.36066 7.51567 2.2551 7.47734V13.7365C2.2551 13.8865 2.30316 14.0096 2.39927 14.1057C2.49538 14.2018 2.61816 14.2498 2.7676 14.2498Z" fill="black"/>
</svg>
