<svg width="16" height="16" viewBox="0 0 16 16" fill="none" xmlns="http://www.w3.org/2000/svg">
<path d="M0.5 8H1.33333M8 0.5V1.33333M14.6667 8H15.5M2.66667 2.66667L3.25 3.25M13.3333 2.66667L12.75 3.25M6.08333 12.1667H9.91667M5.5 11.3333C4.80039 10.8086 4.28361 10.0771 4.02286 9.24236C3.76211 8.40763 3.77061 7.51202 4.04715 6.68238C4.3237 5.85275 4.85427 5.13116 5.56371 4.61982C6.27315 4.10849 7.12549 3.83333 8 3.83333C8.87451 3.83333 9.72685 4.10849 10.4363 4.61982C11.1457 5.13116 11.6763 5.85275 11.9528 6.68238C12.2294 7.51202 12.2379 8.40763 11.9771 9.24236C11.7164 10.0771 11.1996 10.8086 10.5 11.3333C10.1746 11.6554 9.92966 12.0495 9.78489 12.4839C9.64012 12.9182 9.59962 13.3805 9.66667 13.8333C9.66667 14.2754 9.49107 14.6993 9.17851 15.0118C8.86595 15.3244 8.44203 15.5 8 15.5C7.55797 15.5 7.13405 15.3244 6.82149 15.0118C6.50893 14.6993 6.33333 14.2754 6.33333 13.8333C6.40038 13.3805 6.35988 12.9182 6.21511 12.4839C6.07034 12.0495 5.82536 11.6554 5.5 11.3333Z" stroke="black" stroke-linecap="round" stroke-linejoin="round"/>
</svg>
