<svg width="57" height="56" viewBox="0 0 57 56" fill="none" xmlns="http://www.w3.org/2000/svg">
<path d="M16.8281 42V39.6667C16.8281 36.5725 18.0573 33.605 20.2452 31.4171C22.4331 29.2292 25.4006 28 28.4948 28M28.4948 28C31.589 28 34.5564 29.2292 36.7444 31.4171C38.9323 33.605 40.1615 36.5725 40.1615 39.6667V42M28.4948 28C30.3513 28 32.1318 27.2625 33.4445 25.9497C34.7573 24.637 35.4948 22.8565 35.4948 21C35.4948 19.1435 34.7573 17.363 33.4445 16.0503C32.1318 14.7375 30.3513 14 28.4948 14C26.6383 14 24.8578 14.7375 23.545 16.0503C22.2323 17.363 21.4948 19.1435 21.4948 21C21.4948 22.8565 22.2323 24.637 23.545 25.9497C24.8578 27.2625 26.6383 28 28.4948 28ZM2.82812 42V39.6667C2.82813 37.8102 3.56562 36.0297 4.87838 34.7169C6.19113 33.4042 7.97161 32.6667 9.82812 32.6667M9.82812 32.6667C11.0658 32.6667 12.2528 32.175 13.128 31.2998C14.0031 30.4247 14.4948 29.2377 14.4948 28C14.4948 26.7623 14.0031 25.5753 13.128 24.7002C12.2528 23.825 11.0658 23.3333 9.82812 23.3333C8.59045 23.3333 7.40346 23.825 6.52829 24.7002C5.65312 25.5753 5.16146 26.7623 5.16146 28C5.16146 29.2377 5.65312 30.4247 6.52829 31.2998C7.40346 32.175 8.59045 32.6667 9.82812 32.6667ZM54.1615 42V39.6667C54.1615 37.8102 53.424 36.0297 52.1112 34.7169C50.7985 33.4042 49.018 32.6667 47.1615 32.6667M47.1615 32.6667C48.3991 32.6667 49.5861 32.175 50.4613 31.2998C51.3365 30.4247 51.8281 29.2377 51.8281 28C51.8281 26.7623 51.3365 25.5753 50.4613 24.7002C49.5861 23.825 48.3991 23.3333 47.1615 23.3333C45.9238 23.3333 44.7368 23.825 43.8616 24.7002C42.9865 25.5753 42.4948 26.7623 42.4948 28C42.4948 29.2377 42.9865 30.4247 43.8616 31.2998C44.7368 32.175 45.9238 32.6667 47.1615 32.6667Z" stroke="#292929" stroke-width="2.8" stroke-linecap="round" stroke-linejoin="round"/>
</svg>
