<svg width="28" height="28" viewBox="0 0 28 28" fill="none" xmlns="http://www.w3.org/2000/svg">
<rect width="28" height="28" rx="4" fill="#F8F8FC"/>
<path d="M14 8C13.803 8 13.608 8.0388 13.426 8.11418C13.244 8.18956 13.0786 8.30005 12.9393 8.43934C12.8001 8.57863 12.6896 8.74399 12.6142 8.92597C12.5388 9.10796 12.5 9.30302 12.5 9.5C12.5 9.69698 12.5388 9.89204 12.6142 10.074C12.6896 10.256 12.8001 10.4214 12.9393 10.5607C13.0786 10.6999 13.244 10.8104 13.426 10.8858C13.608 10.9612 13.803 11 14 11C14.3978 11 14.7794 10.842 15.0607 10.5607C15.342 10.2794 15.5 9.89782 15.5 9.5C15.5 9.10218 15.342 8.72064 15.0607 8.43934C14.7794 8.15804 14.3978 8 14 8ZM11.5 9.5C11.5 8.83696 11.7634 8.20107 12.2322 7.73223C12.7011 7.26339 13.337 7 14 7C14.663 7 15.2989 7.26339 15.7678 7.73223C16.2366 8.20107 16.5 8.83696 16.5 9.5C16.5 10.163 16.2366 10.7989 15.7678 11.2678C15.2989 11.7366 14.663 12 14 12C13.337 12 12.7011 11.7366 12.2322 11.2678C11.7634 10.7989 11.5 10.163 11.5 9.5ZM10 14.5C10.0007 14.3173 10.0193 14.1407 10.056 13.97L8.112 14.49C7.92169 14.541 7.74331 14.6291 7.58704 14.7491C7.43076 14.8691 7.29966 15.0187 7.20123 15.1894C7.10279 15.3601 7.03895 15.5485 7.01334 15.7439C6.98774 15.9392 7.00087 16.1377 7.052 16.328L7.44 17.777C7.54432 18.1658 7.72581 18.5296 7.97368 18.8468C8.22155 19.164 8.53072 19.4281 8.88278 19.6233C9.23483 19.8185 9.62257 19.9408 10.0229 19.983C10.4232 20.0253 10.828 19.9865 11.213 19.869C10.9456 19.6096 10.7157 19.314 10.53 18.991C10.0589 19.0365 9.58698 18.9134 9.19808 18.6437C8.80917 18.374 8.52852 17.9751 8.406 17.518L8.017 16.068C7.98281 15.9399 8.00089 15.8035 8.06728 15.6887C8.13366 15.5739 8.24291 15.4902 8.371 15.456L10 15.02V14.5ZM16.886 19.898L16.786 19.87C17.053 19.61 17.284 19.315 17.47 18.991C17.9411 19.0365 18.413 18.9134 18.8019 18.6437C19.1908 18.374 19.4715 17.9751 19.594 17.518L19.982 16.068C20.0162 15.94 19.9983 15.8037 19.9321 15.689C19.8659 15.5742 19.7569 15.4904 19.629 15.456L18 15.02V14.5C17.9993 14.3173 17.9807 14.1407 17.944 13.97L19.887 14.49C20.0774 14.5409 20.2559 14.6289 20.4123 14.7489C20.5687 14.8688 20.6999 15.0184 20.7984 15.1891C20.8969 15.3598 20.9609 15.5483 20.9865 15.7437C21.0122 15.9391 20.9991 16.1376 20.948 16.328L20.56 17.777C20.3538 18.5452 19.8509 19.2001 19.1619 19.5977C18.473 19.9952 17.6543 20.1039 16.886 19.898ZM8 11C8 10.7348 8.10536 10.4804 8.29289 10.2929C8.48043 10.1054 8.73478 10 9 10C9.26522 10 9.51957 10.1054 9.70711 10.2929C9.89464 10.4804 10 10.7348 10 11C10 11.2652 9.89464 11.5196 9.70711 11.7071C9.51957 11.8946 9.26522 12 9 12C8.73478 12 8.48043 11.8946 8.29289 11.7071C8.10536 11.5196 8 11.2652 8 11ZM9 9C8.46957 9 7.96086 9.21071 7.58579 9.58579C7.21071 9.96086 7 10.4696 7 11C7 11.5304 7.21071 12.0391 7.58579 12.4142C7.96086 12.7893 8.46957 13 9 13C9.53043 13 10.0391 12.7893 10.4142 12.4142C10.7893 12.0391 11 11.5304 11 11C11 10.4696 10.7893 9.96086 10.4142 9.58579C10.0391 9.21071 9.53043 9 9 9ZM19 10C18.7348 10 18.4804 10.1054 18.2929 10.2929C18.1054 10.4804 18 10.7348 18 11C18 11.2652 18.1054 11.5196 18.2929 11.7071C18.4804 11.8946 18.7348 12 19 12C19.2652 12 19.5196 11.8946 19.7071 11.7071C19.8946 11.5196 20 11.2652 20 11C20 10.7348 19.8946 10.4804 19.7071 10.2929C19.5196 10.1054 19.2652 10 19 10ZM17 11C17 10.4696 17.2107 9.96086 17.5858 9.58579C17.9609 9.21071 18.4696 9 19 9C19.5304 9 20.0391 9.21071 20.4142 9.58579C20.7893 9.96086 21 10.4696 21 11C21 11.5304 20.7893 12.0391 20.4142 12.4142C20.0391 12.7893 19.5304 13 19 13C18.4696 13 17.9609 12.7893 17.5858 12.4142C17.2107 12.0391 17 11.5304 17 11ZM12.5 13C12.1022 13 11.7206 13.158 11.4393 13.4393C11.158 13.7206 11 14.1022 11 14.5V17C11 17.7956 11.3161 18.5587 11.8787 19.1213C12.4413 19.6839 13.2044 20 14 20C14.7956 20 15.5587 19.6839 16.1213 19.1213C16.6839 18.5587 17 17.7956 17 17V14.5C17 14.1022 16.842 13.7206 16.5607 13.4393C16.2794 13.158 15.8978 13 15.5 13H12.5ZM12 14.5C12 14.3674 12.0527 14.2402 12.1464 14.1464C12.2402 14.0527 12.3674 14 12.5 14H15.5C15.6326 14 15.7598 14.0527 15.8536 14.1464C15.9473 14.2402 16 14.3674 16 14.5V17C16 17.5304 15.7893 18.0391 15.4142 18.4142C15.0391 18.7893 14.5304 19 14 19C13.4696 19 12.9609 18.7893 12.5858 18.4142C12.2107 18.0391 12 17.5304 12 17V14.5Z" fill="#4A5154"/>
</svg>
