<svg width="13" height="14" viewBox="0 0 13 14" fill="none" xmlns="http://www.w3.org/2000/svg">
<path d="M3.59474 1.70605C2.90439 1.77435 2.43957 1.92788 2.09227 2.2757C1.47021 2.89882 1.47021 3.90205 1.47021 5.90905V8.03729C1.47021 10.0438 1.47021 11.0475 2.09227 11.6712C2.71433 12.2948 3.71598 12.2943 5.71874 12.2943H6.78127C8.78404 12.2943 9.78569 12.2943 10.4077 11.6712C10.9726 11.1047 11.025 10.2328 11.0298 8.57623" stroke="#0073B4" stroke-linecap="round" stroke-linejoin="round"/>
<path d="M5.71843 4.35392L6.24943 6.20686C6.5459 6.79451 6.91808 6.94804 7.84296 7.00098C8.57832 6.98298 9.00502 6.89615 9.36926 6.57957C9.61755 6.36357 9.72979 6.03798 9.78432 5.71398L9.96643 4.61863M11.2942 3.5598V6.20686M4.69932 3.25963C5.53949 2.56239 6.28808 2.1881 7.84084 1.77621C8.01602 1.72996 8.20031 1.73088 8.37502 1.77886C9.74937 2.15686 10.4916 2.49251 11.4858 3.23898C11.5282 3.27074 11.5409 3.33004 11.5113 3.37398C11.1867 3.85151 10.462 4.23851 8.6842 4.9278C8.31391 5.07028 7.90353 5.06801 7.53484 4.92145C5.64167 4.16968 4.77131 3.76733 4.66543 3.34963C4.66199 3.33295 4.66335 3.31565 4.66935 3.29972C4.67534 3.28379 4.68573 3.26989 4.69932 3.25963Z" stroke="#0073B4" stroke-linecap="round" stroke-linejoin="round"/>
</svg>
