<svg width="14" height="14" viewBox="0 0 14 14" fill="none" xmlns="http://www.w3.org/2000/svg">
<path d="M11.7683 8.05882V10.7067C11.7683 10.9876 11.6567 11.257 11.4581 11.4557C11.2595 11.6543 10.9901 11.7659 10.7092 11.7659H3.29501C3.0141 11.7659 2.74469 11.6543 2.54606 11.4557C2.34743 11.257 2.23584 10.9876 2.23584 10.7067V3.29257C2.23584 3.01166 2.34743 2.74225 2.54606 2.54362C2.74469 2.34499 3.0141 2.2334 3.29501 2.2334H5.94292V3.29257H3.29501V10.7067H10.7092V8.05882H11.7683Z" fill="#0073B4"/>
<path d="M11.768 4.35173H9.64967V2.2334H8.5905V4.35173H6.47217V5.4109H8.5905V7.52923H9.64967V5.4109H11.768V4.35173Z" fill="#0073B4"/>
</svg>
