<svg width="172" height="62" viewBox="0 0 172 62" fill="none" xmlns="http://www.w3.org/2000/svg">
<g clip-path="url(#clip0_661_1727)">
<path d="M32.2893 51V28.1938H36.2481V34.3902L35.8609 32.8411C36.492 31.2633 37.5534 30.0584 39.0451 29.2265C40.5369 28.3946 42.3728 27.9786 44.5531 27.9786V31.9805C44.3809 31.9518 44.2088 31.9374 44.0367 31.9374C43.8932 31.9374 43.7498 31.9374 43.6064 31.9374C41.3975 31.9374 39.6476 32.5972 38.3566 33.9168C37.0657 35.2364 36.4203 37.1441 36.4203 39.6399V51H32.2893ZM57.8683 51.2582C55.4299 51.2582 53.2784 50.7562 51.4137 49.7521C49.5778 48.7481 48.1434 47.3711 47.1107 45.6212C46.1066 43.8713 45.6046 41.8632 45.6046 39.5969C45.6046 37.3306 46.0923 35.3225 47.0677 33.5726C48.0717 31.8227 49.4343 30.46 51.1556 29.4847C52.9055 28.4806 54.8705 27.9786 57.0508 27.9786C59.2597 27.9786 61.2104 28.4663 62.9029 29.4417C64.5955 30.417 65.9151 31.794 66.8617 33.5726C67.8371 35.3225 68.3248 37.3736 68.3248 39.726C68.3248 39.8981 68.3104 40.0989 68.2818 40.3284C68.2818 40.5579 68.2674 40.7731 68.2387 40.9739H48.8319V38.0047H66.0872L64.409 39.0375C64.4377 37.5744 64.1365 36.2692 63.5054 35.1217C62.8742 33.9742 61.9993 33.0849 60.8805 32.4538C59.7904 31.794 58.5138 31.4641 57.0508 31.4641C55.6164 31.4641 54.3398 31.794 53.221 32.4538C52.1022 33.0849 51.2273 33.9886 50.5962 35.1647C49.965 36.3122 49.6495 37.6318 49.6495 39.1235V39.812C49.6495 41.3325 49.9937 42.6951 50.6822 43.8999C51.3994 45.0761 52.3891 45.9941 53.6513 46.6539C54.9136 47.3137 56.3623 47.6436 57.9974 47.6436C59.3457 47.6436 60.5649 47.4141 61.655 46.9551C62.7738 46.4961 63.7492 45.8076 64.5811 44.8897L66.8617 47.5575C65.829 48.7624 64.5381 49.6804 62.989 50.3115C61.4686 50.9426 59.7617 51.2582 57.8683 51.2582ZM77.9008 51L67.9177 28.1938H72.2207L81.085 48.8485H79.0196L88.056 28.1938H92.1009L82.1178 51H77.9008ZM103.373 51.2582C101.078 51.2582 99.0408 50.7562 97.2622 49.7521C95.4836 48.7481 94.0779 47.3711 93.0452 45.6212C92.0125 43.8426 91.4961 41.8345 91.4961 39.5969C91.4961 37.3306 92.0125 35.3225 93.0452 33.5726C94.0779 31.8227 95.4836 30.46 97.2622 29.4847C99.0408 28.4806 101.078 27.9786 103.373 27.9786C105.639 27.9786 107.661 28.4806 109.44 29.4847C111.247 30.46 112.653 31.8227 113.657 33.5726C114.69 35.2938 115.206 37.3019 115.206 39.5969C115.206 41.8632 114.69 43.8713 113.657 45.6212C112.653 47.3711 111.247 48.7481 109.44 49.7521C107.661 50.7562 105.639 51.2582 103.373 51.2582ZM103.373 47.6436C104.836 47.6436 106.141 47.3137 107.288 46.6539C108.465 45.9941 109.383 45.0618 110.042 43.8569C110.702 42.6234 111.032 41.2034 111.032 39.5969C111.032 37.9617 110.702 36.5561 110.042 35.3799C109.383 34.175 108.465 33.2427 107.288 32.5829C106.141 31.9231 104.836 31.5932 103.373 31.5932C101.91 31.5932 100.604 31.9231 99.4568 32.5829C98.3093 33.2427 97.3913 34.175 96.7028 35.3799C96.0143 36.5561 95.6701 37.9617 95.6701 39.5969C95.6701 41.2034 96.0143 42.6234 96.7028 43.8569C97.3913 45.0618 98.3093 45.9941 99.4568 46.6539C100.604 47.3137 101.91 47.6436 103.373 47.6436ZM129.353 51.2582C126.915 51.2582 124.763 50.7562 122.898 49.7521C121.062 48.7481 119.628 47.3711 118.595 45.6212C117.591 43.8713 117.089 41.8632 117.089 39.5969C117.089 37.3306 117.577 35.3225 118.552 33.5726C119.556 31.8227 120.919 30.46 122.64 29.4847C124.39 28.4806 126.355 27.9786 128.535 27.9786C130.744 27.9786 132.695 28.4663 134.388 29.4417C136.08 30.417 137.4 31.794 138.346 33.5726C139.322 35.3225 139.809 37.3736 139.809 39.726C139.809 39.8981 139.795 40.0989 139.766 40.3284C139.766 40.5579 139.752 40.7731 139.723 40.9739H120.317V38.0047H137.572L135.894 39.0375C135.922 37.5744 135.621 36.2692 134.99 35.1217C134.359 33.9742 133.484 33.0849 132.365 32.4538C131.275 31.794 129.998 31.4641 128.535 31.4641C127.101 31.4641 125.824 31.794 124.706 32.4538C123.587 33.0849 122.712 33.9886 122.081 35.1647C121.45 36.3122 121.134 37.6318 121.134 39.1235V39.812C121.134 41.3325 121.478 42.6951 122.167 43.8999C122.884 45.0761 123.874 45.9941 125.136 46.6539C126.398 47.3137 127.847 47.6436 129.482 47.6436C130.83 47.6436 132.05 47.4141 133.14 46.9551C134.258 46.4961 135.234 45.8076 136.066 44.8897L138.346 47.5575C137.314 48.7624 136.023 49.6804 134.474 50.3115C132.953 50.9426 131.246 51.2582 129.353 51.2582Z" fill="#002338"/>
<path d="M28.5741 39.183C29.1547 39.5374 29.1547 40.3805 28.5741 40.7349L21.9852 44.7573C21.3794 45.1272 20.6024 44.6911 20.6024 43.9814V35.9366C20.6024 35.2268 21.3794 34.7908 21.9852 35.1606L28.5741 39.183Z" fill="#DE2424"/>
<path d="M26.9036 47.0036C27.5071 47.5481 27.5603 48.4868 26.9459 49.019C25.4588 50.307 23.6709 51.2136 21.7368 51.6483C19.322 52.1912 16.7983 51.9717 14.5134 51.0202C12.2286 50.0687 10.2951 48.4321 8.97931 46.3357C7.66354 44.2394 7.0303 41.7866 7.16683 39.3154C7.30337 36.8441 8.20297 34.476 9.74167 32.5374C11.2804 30.5988 13.3824 29.1851 15.7582 28.4911C18.1339 27.7971 20.6664 27.857 23.0067 28.6625C24.8812 29.3077 26.5584 30.4058 27.8945 31.8497C28.4465 32.4463 28.2903 33.3735 27.6304 33.8482L26.2639 34.8313C25.604 35.3059 24.6925 35.1419 24.0958 34.5898C23.3519 33.9015 22.4693 33.371 21.5008 33.0377C20.0656 32.5437 18.5125 32.5069 17.0556 32.9325C15.5986 33.3581 14.3095 34.2251 13.3659 35.414C12.4223 36.6028 11.8706 38.0551 11.7868 39.5706C11.7031 41.0861 12.0915 42.5903 12.8984 43.8759C13.7053 45.1615 14.891 46.1652 16.2922 46.7487C17.6934 47.3322 19.2411 47.4668 20.722 47.1339C21.7213 46.9093 22.6569 46.4793 23.4722 45.8771C24.1261 45.3941 25.0501 45.3315 25.6536 45.876L26.9036 47.0036Z" fill="#002338"/>
</g>
<defs>
<clipPath id="clip0_661_1727">
<rect width="172" height="62" fill="white"/>
</clipPath>
</defs>
</svg>
