<svg width="23" height="26" viewBox="0 0 23 26" fill="none" xmlns="http://www.w3.org/2000/svg">
<path d="M21.5727 12.1849C22.1532 12.5394 22.1532 13.3825 21.5727 13.7369L14.9837 17.7593C14.3779 18.1291 13.6009 17.6931 13.6009 16.9833L13.6009 8.93852C13.6009 8.22874 14.3779 7.79272 14.9837 8.16255L21.5727 12.1849Z" fill="#DE2424"/>
<path d="M19.905 20.0045C20.5086 20.549 20.5618 21.4878 19.9473 22.02C18.4603 23.308 16.6723 24.2146 14.7382 24.6493C12.3234 25.1921 9.79975 24.9727 7.51491 24.0212C5.23007 23.0697 3.29654 21.433 1.98077 19.3367C0.665007 17.2404 0.0317613 14.7876 0.168298 12.3163C0.304836 9.84507 1.20443 7.47697 2.74313 5.53835C4.28183 3.59974 6.38389 2.18603 8.75964 1.49205C11.1354 0.79807 13.6679 0.857968 16.0082 1.66349C17.8826 2.30867 19.5598 3.40673 20.8959 4.85067C21.448 5.4473 21.2917 6.37451 20.6319 6.8492L19.2653 7.83223C18.6054 8.30692 17.694 8.14286 17.0973 7.59081C16.3533 6.90245 15.4707 6.37198 14.5023 6.03864C13.0671 5.54464 11.514 5.50791 10.057 5.9335C8.60008 6.35909 7.31097 7.22606 6.36735 8.41493C5.42373 9.6038 4.87205 11.0561 4.78831 12.5716C4.70458 14.0871 5.09292 15.5913 5.89983 16.8769C6.70674 18.1625 7.89249 19.1662 9.29369 19.7497C10.6949 20.3332 12.2426 20.4678 13.7235 20.1349C14.7227 19.9103 15.6584 19.4803 16.4737 18.8781C17.1275 18.3951 18.0515 18.3325 18.6551 18.8769L19.905 20.0045Z" fill="#002338"/>
</svg>
