<svg width="94" height="92" viewBox="0 0 94 92" fill="none" xmlns="http://www.w3.org/2000/svg">
<mask id="mask0_1930_111511" style="mask-type:luminance" maskUnits="userSpaceOnUse" x="0" y="0" width="94" height="92">
<path d="M93.6092 0H0.390625V92H93.6092V0Z" fill="white"/>
</mask>
<g mask="url(#mask0_1930_111511)">
<mask id="mask1_1930_111511" style="mask-type:luminance" maskUnits="userSpaceOnUse" x="5" y="6" width="84" height="79">
<path d="M5.8291 6.75781H88.0801V84.744H5.8291V6.75781Z" fill="white"/>
</mask>
<g mask="url(#mask1_1930_111511)">
<path fill-rule="evenodd" clip-rule="evenodd" d="M64.4044 13.3946C64.1984 13.5404 64.0656 13.7681 64.0404 14.0187C64.0153 14.2692 64.1003 14.5179 64.2735 14.7002L64.2811 14.7075L65.3672 15.8328L63.9648 16.5387L63.9565 16.5446C63.5469 16.7686 63.3862 17.275 63.5925 17.6919C63.7988 18.1087 64.2985 18.2872 64.7246 18.0963L64.7328 18.0905L64.7561 18.074L66.1401 17.3985L66.3639 18.8744L66.3733 18.9474L66.376 18.9582C66.4462 19.4306 66.8858 19.756 67.3593 19.6862C67.8329 19.6163 68.1623 19.1775 68.0962 18.7045L68.0935 18.6936L67.8796 17.1438L69.3193 17.3764L69.4269 17.3947L69.4385 17.3971C69.9026 17.4596 70.334 17.1431 70.4137 16.6817C70.4934 16.2203 70.1926 15.7804 69.7338 15.6873L69.7221 15.6849L68.1796 15.4161L68.8406 14.1418L68.9034 14.023L68.91 14.0183C69.1128 13.5967 68.9456 13.0917 68.5318 12.8758C68.1179 12.6599 67.606 12.8107 67.3736 13.2168L67.367 13.2215L67.3653 13.2226L66.6272 14.6061L65.547 13.5136L65.5272 13.4927L65.5195 13.4853C65.2205 13.1881 64.7497 13.1498 64.4044 13.3946Z" fill="#FF725B"/>
<path fill-rule="evenodd" clip-rule="evenodd" d="M2.96191 11.7852C2.96168 11.7853 3.10203 11.6743 3.34652 11.4809C3.59101 11.2876 3.91553 11.0309 4.23584 10.7775L4.24923 10.7669L6.23948 9.19274L5.93742 9.43165V9.43165C5.86791 9.48663 6.28029 9.16046 6.87168 8.69269C7.46306 8.22493 8.02243 7.78249 8.13893 7.69035V7.69035V7.69035L8.45928 7.43696L10.1761 6.079L10.2598 6.01283L10.2732 6.00224C10.8216 5.56844 11.4905 5.03936 11.7696 4.81867C12.0486 4.59798 11.8327 4.76872 11.2867 5.20062L11.2733 5.21121L9.48614 6.62476L10.8018 5.58414L10.9011 5.50562L10.9122 5.4968C11.3232 5.17172 11.3118 5.18074 10.8864 5.51718C10.4611 5.85362 9.77507 6.39623 9.3359 6.7436L9.32474 6.75242L7.89454 7.88365L7.04783 8.55337L6.96975 8.61513V8.61513C6.67782 8.84602 6.02295 9.364 5.48821 9.78696C4.95347 10.2099 4.73083 10.386 4.98451 10.1854V10.1854V10.1854L5.88857 9.4703L3.93713 11.0138L3.90032 11.0429L3.88694 11.0535C3.35219 11.4765 2.96163 11.7854 2.96191 11.7852Z" fill="#FF725B"/>
<path fill-rule="evenodd" clip-rule="evenodd" d="M19.8465 62.9783C19.74 63.0807 19.6836 63.2246 19.6917 63.3725C19.6998 63.5205 19.7718 63.6579 19.889 63.7491L19.8941 63.7527L20.6271 64.3146L19.8765 64.8454L19.8723 64.8495C19.6546 65.0149 19.6073 65.3233 19.765 65.5482C19.9226 65.7731 20.2291 65.8342 20.4593 65.6867L20.4636 65.6825L20.4755 65.671L21.2182 65.1594L21.4822 65.9991L21.4943 66.0408L21.4968 66.0468C21.5805 66.3157 21.8654 66.4674 22.1341 66.3862C22.4029 66.305 22.5544 66.0215 22.473 65.7519L22.4705 65.7459L22.2055 64.8624L23.063 64.8745L23.1271 64.8759L23.1341 64.8763C23.4093 64.873 23.6312 64.6518 23.6356 64.3766C23.64 64.1013 23.4254 63.871 23.1504 63.8561L23.1434 63.8557L22.223 63.8314L22.4913 63.0333L22.517 62.9588L22.5204 62.9555C22.5999 62.6928 22.457 62.4133 22.197 62.3231C21.9369 62.2329 21.6532 62.3644 21.5551 62.6206L21.5517 62.6239L21.5509 62.6247L21.2477 63.4929L20.521 62.9497L20.5076 62.9392L20.5025 62.9356C20.3018 62.7882 20.0248 62.8062 19.8465 62.9783Z" fill="#FF725B"/>
<path fill-rule="evenodd" clip-rule="evenodd" d="M14.5059 40.5897C14.7108 40.5897 14.8691 40.7523 14.8691 40.9627C14.8691 41.1731 14.7108 41.3356 14.5059 41.3356C14.3009 41.3356 14.1426 41.1731 14.1426 40.9627C14.1426 40.7523 14.3009 40.5897 14.5059 40.5897ZM14.5059 39.8438C13.9083 39.8438 13.416 40.3491 13.416 40.9627C13.416 41.5762 13.9083 42.0816 14.5059 42.0816C15.1035 42.0816 15.5957 41.5762 15.5957 40.9627C15.5957 40.3491 15.1035 39.8438 14.5059 39.8438Z" fill="#97A5AA"/>
<path fill-rule="evenodd" clip-rule="evenodd" d="M76.0816 40.9116C76.3964 40.9116 76.6397 41.1614 76.6397 41.4847C76.6397 41.8079 76.3964 42.0576 76.0816 42.0576C75.7667 42.0576 75.5235 41.8079 75.5235 41.4847C75.5235 41.1614 75.7667 40.9116 76.0816 40.9116ZM76.0816 39.7656C75.1635 39.7656 74.4072 40.542 74.4072 41.4847C74.4072 42.4272 75.1635 43.2037 76.0816 43.2037C76.9997 43.2037 77.7559 42.4272 77.7559 41.4847C77.7559 40.542 76.9997 39.7656 76.0816 39.7656Z" fill="#97A5AA"/>
<path fill-rule="evenodd" clip-rule="evenodd" d="M67.4311 72.2169L66.6853 71.5811L67.3014 70.8174L68.0489 71.4547L67.4311 72.2169ZM67.5847 73.771C67.7478 73.7531 67.8974 73.6706 68.0017 73.5411L69.4214 71.7853C69.6424 71.5113 69.6047 71.1043 69.337 70.8756L67.6188 69.4109C67.3506 69.1828 66.9541 69.2196 66.7324 69.493L65.3126 71.2487C65.0916 71.5227 65.1293 71.9296 65.397 72.1584L67.1153 73.6233C67.2462 73.7354 67.4155 73.7887 67.5847 73.771Z" fill="#97A5AA"/>
<path fill-rule="evenodd" clip-rule="evenodd" d="M26.362 20.6525L27.111 19.9382L27.8285 20.6859L27.0777 21.4018L26.362 20.6525ZM24.7322 20.6256C24.7311 20.801 24.7986 20.9699 24.9203 21.0965L26.5695 22.8189C26.8269 23.0871 27.2534 23.0969 27.5228 22.8406L29.2484 21.195C29.5172 20.938 29.5269 20.5125 29.2701 20.2436L27.6211 18.5211C27.3636 18.2529 26.9372 18.2432 26.6678 18.4994L24.942 20.1451C24.8099 20.2704 24.7343 20.4437 24.7322 20.6256Z" fill="#97A5AA"/>
<path d="M46.6348 29.0693C55.5456 29.0693 62.7804 36.3042 62.7804 45.2149C62.7804 54.1257 55.5456 61.3605 46.6348 61.3605C37.7241 61.3605 30.4893 54.1257 30.4893 45.2149C30.4893 36.3042 37.7241 29.0693 46.6348 29.0693Z" fill="#23B26D"/>
<path d="M38.8819 44.1483L37.2275 45.8026L44.1655 52.7406L56.0408 40.8653L54.3865 39.2109L44.1655 49.4319L38.8819 44.1483Z" fill="white"/>
</g>
</g>
</svg>
